<svg width="453" height="325" viewBox="0 0 453 325" fill="none" xmlns="http://www.w3.org/2000/svg">
<path d="M30.5171 324.296C30.5171 324.296 -2.1789 247.33 39.1721 189.165C80.5231 131 55.3031 79.4379 127.907 28.1049C221.228 -37.8751 311.24 27.2239 338.082 71.3609C364.924 115.498 456.094 92.9669 429.598 218.556C409.044 315.978 424.381 320.252 424.381 320.252L30.5171 324.296Z" fill="#F1EEFD"/>
<path d="M50.2171 303.475C50.2171 303.475 -7.80692 273.161 6.17408 204.997C20.1551 136.833 77.0951 120.658 100.512 125.662C144.402 135.041 72.6951 162.714 55.5661 115.216C34.0741 55.6199 110.704 10.4989 181.739 22.1759C227.392 29.6809 249.429 51.5349 290.011 65.2669C330.448 78.9499 347.408 60.6239 331.297 50.0029C316.004 39.9199 260.478 56.3699 279.543 78.9159C305.648 109.787 368.56 61.9569 417.319 115.216C466.078 168.475 423.749 235.432 386.264 241.016C348.779 246.599 365.215 192.793 423.749 235.433C482.283 278.073 408.346 324.298 408.346 324.298" stroke="#C3C8FF" stroke-miterlimit="10"/>
<path d="M447.808 308.691H4.263C1.908 308.691 0 306.782 0 304.428C0 302.073 1.909 300.165 4.263 300.165H452.071V304.428C452.071 306.782 450.162 308.691 447.808 308.691Z" fill="#6876EB"/>
<path d="M163.657 308.691H4.263C1.908 308.691 0 306.782 0 304.428V300.165H167.921V304.428C167.921 306.782 166.012 308.691 163.657 308.691Z" fill="#1C145E"/>
<path d="M229.919 137.64C210.925 174.14 189.583 189.01 189.583 189.01L208.014 218.436L240.199 184.99L229.919 137.64Z" fill="#1C145E"/>
<path d="M277.014 128.928L229.919 137.64C226.936 226.743 225.818 300.153 225.818 300.153H310.352C310.352 300.153 312.805 163.71 299.206 133.94L277.014 128.928Z" fill="#1C145E"/>
<path d="M271.546 174.335L294.49 172.394" stroke="#6876EB" stroke-width="4" stroke-miterlimit="10"/>
<path d="M261.014 155.185C261.014 155.185 275.577 254.562 262.906 294.772" stroke="#6876EB" stroke-miterlimit="10"/>
<path d="M245.766 204.964C245.766 204.964 259.832 210.626 278.068 211.225C296.304 211.824 284.958 221.527 257.924 219.687" stroke="#6876EB" stroke-miterlimit="10"/>
<path d="M249.391 125.305L261.014 156.185L277.014 128.928L266.469 111.695L249.391 125.305Z" fill="#E9A394"/>
<path d="M261.014 156.185L282.711 150.195L277.014 128.928L261.014 156.185Z" fill="#6876EB"/>
<path d="M251.974 132.167L240.199 145.319L261.014 156.185L251.974 132.167Z" fill="#6876EB"/>
<path d="M208.014 218.436C208.014 218.436 214.891 204.095 200.125 185.624C191.937 175.381 188.164 157.706 188.164 157.706L175.862 159.577L187.127 218.437H208.014V218.436Z" fill="#E9A394"/>
<path d="M173.347 139.251L168.31 143.829L175.044 149.773L153.958 149.414L153.506 156.649L175.861 159.577L188.164 157.706L173.347 139.251Z" fill="#E9A394"/>
<path d="M177.032 150.519L156.801 142.174L155.495 145.768L172.381 152.864L177.032 150.519Z" fill="#E9A394"/>
<path d="M299.207 133.94C299.207 133.94 326.384 149.414 334.966 207.376L303.436 214.984L299.207 133.94Z" fill="#1C145E"/>
<path d="M240.183 87.569L229.919 113.833L237.768 116.248L240.183 131.041L265.241 125.305L268.863 85.154L240.183 87.569Z" fill="#E9A394"/>
<path d="M256.906 93.81H237.744L239.834 88.148L256.906 87.092V93.81Z" fill="#E37A82"/>
<path d="M266.919 105.792C266.919 105.792 254.694 103.263 254.694 90.616C254.694 90.616 236.555 93.085 230.293 83.239C222.876 71.576 234.211 58.173 243.572 60.896C243.572 60.896 237.673 66.743 246.632 67.43C253.021 67.92 264.696 59.42 268.864 67.641C268.864 67.641 301.022 74.986 277.015 104.949L266.919 105.792Z" fill="#16005C"/>
<path d="M254.693 89.616C254.693 89.616 230.446 94.301 225.375 76.913C222.41 66.748 232.599 60.959 232.599 60.959" stroke="#16005C" stroke-width="2" stroke-miterlimit="10"/>
<path d="M244.433 112.996C249.488 112.996 253.586 108.898 253.586 103.843C253.586 98.7879 249.488 94.69 244.433 94.69C239.378 94.69 235.28 98.7879 235.28 103.843C235.28 108.898 239.378 112.996 244.433 112.996Z" stroke="#16005C" stroke-width="0.5" stroke-miterlimit="10"/>
<path d="M253.094 100.881L266.13 101.595" stroke="#16005C" stroke-width="0.5" stroke-miterlimit="10"/>
<path d="M282.711 108.097C282.711 113.766 275.116 118.361 269.447 118.361C263.778 118.361 262.183 113.765 262.183 108.097C262.183 102.429 266.779 97.833 272.447 97.833C278.115 97.833 282.711 102.429 282.711 108.097Z" fill="#E9A394"/>
<path d="M331.203 208.283V255.615H307.602L305.638 214.452L331.203 208.283Z" fill="#E9A394"/>
<path d="M228.081 197.583L229.072 164.603L213.784 212.441L228.081 197.583Z" fill="#1C145C"/>
<path d="M250.606 128.446L265.241 125.305L253.243 135.538L250.606 128.446Z" fill="#E37A82"/>
<path d="M241.951 108.097C242.919 108.097 243.703 106.461 243.703 104.443C243.703 102.425 242.919 100.789 241.951 100.789C240.983 100.789 240.199 102.425 240.199 104.443C240.199 106.461 240.983 108.097 241.951 108.097Z" fill="#16005C"/>
<path d="M246.709 95.556C246.709 90.66 242.811 93.956 242.811 93.956L246.709 95.556Z" fill="#16005C"/>
<path d="M242.81 117.232L248.385 115.748C248.385 115.748 250.774 136.426 242.81 117.232Z" fill="white"/>
<path d="M122.672 209.916C122.672 209.916 160.285 204.096 161.024 269.686C161.144 280.33 167.921 300.164 167.921 300.164H133.834L122.672 209.916Z" fill="#5321D7"/>
<path d="M83.343 204.096L60.61 209.462L67.546 300.164H155.998C155.998 300.164 153.031 228.401 119.675 206.872L83.343 204.096Z" fill="#6A3FDC"/>
<path d="M60.61 209.462C37.179 214.806 42.664 232.79 47.188 269.72C35.493 279.218 46.713 283.493 46.713 283.493C33.869 297.108 49.892 300.164 49.892 300.164H92.666C92.666 300.164 84.057 204.114 60.61 209.462Z" fill="#6A3FDC"/>
<path d="M90.122 279.215L79.857 232.095" stroke="#5321D7" stroke-miterlimit="10"/>
<path d="M49.891 300.164C49.891 300.164 57.113 283.583 79.938 275.247C98.863 268.336 126.546 286.277 144.267 269.229L147.549 288.423L92.665 300.164H49.891Z" fill="#E9A394"/>
<path d="M125.133 157.382L142.055 183.14L131.196 187.016L129.319 207.949L96.685 196.611L99.76 154.032L125.133 157.382Z" fill="#E9A394"/>
<path d="M100.024 184.439L83.343 204.096L104.735 230.312L114.383 199.692L100.024 184.439Z" fill="#E37A82"/>
<path d="M105.602 172.268L129.472 163.987L125.133 157.382L101.553 159.836L105.602 172.268Z" fill="#E37A82"/>
<path d="M103.541 181.291C103.541 181.291 110.768 195.76 105.74 167.869C105.74 167.869 112.598 168.639 117.969 159.588C117.969 159.588 116.3 174.337 132.055 159.588C147.81 144.838 127.781 133.298 103.307 137.64C82.094 141.404 60.866 153.389 91.892 194.022L103.541 181.291Z" fill="#16005C"/>
<path d="M99.677 187.044C98.049 189.227 95.252 191.208 92.344 191.632C86.528 192.479 80.848 187.888 80.001 182.072C79.154 176.256 82.092 173.236 87.907 172.389C91.176 171.913 94.961 172.882 97.8 174.855C98.658 175.924 99.677 187.044 99.677 187.044Z" fill="#E9A394"/>
<path d="M122.699 179.005C123.57 178.768 123.839 176.965 123.299 174.978C122.76 172.99 121.617 171.57 120.746 171.807C119.875 172.043 119.606 173.846 120.145 175.834C120.685 177.821 121.828 179.241 122.699 179.005Z" fill="#16005C"/>
<path d="M116.083 170.349C116.083 170.349 115.235 165.566 119.675 167.869L116.083 170.349Z" fill="#16005C"/>
<path d="M80.672 204.9L84.545 200.452L83.124 197.155L91.891 194.023L117.042 206.671L117.968 216.328L113.712 214.983L106.764 240.881L80.672 204.9Z" fill="#6A3FDC"/>
<path d="M103.383 211.224L117.968 216.328L117.042 206.671" stroke="#5321D7" stroke-miterlimit="10"/>
<path d="M105.74 167.869C105.74 167.869 108.674 184.945 112.965 188.456C114.374 189.609 117.041 186.676 129.319 186.43C136.826 186.28 136.82 212.484 126.858 211.733C116.896 210.982 101.757 204.771 99.488 185.671C97.499 168.915 105.74 167.869 105.74 167.869Z" fill="#16005C"/>
<path d="M117.968 191.632C117.968 191.632 120.5 196.347 125.49 193.153" stroke="#C4C6C5" stroke-miterlimit="10"/>
<path d="M174.899 289.38H90.931V295.601C90.931 298.121 92.974 300.163 95.493 300.163H174.899C177.419 300.163 179.461 298.12 179.461 295.601V293.942C179.462 291.423 177.419 289.38 174.899 289.38Z" fill="#1C145E"/>
<path d="M243.094 227.015H145.418C142.515 227.015 140.064 229.173 139.696 232.052L131.827 293.665C131.387 297.113 134.073 300.164 137.549 300.164H235.225C238.128 300.164 240.579 298.006 240.947 295.127L248.816 233.514C249.256 230.066 246.57 227.015 243.094 227.015Z" fill="#1C145E"/>
<path d="M247.821 227.015H150.145C147.242 227.015 144.791 229.173 144.423 232.052L136.554 293.665C136.114 297.113 138.8 300.164 142.276 300.164H239.952C242.855 300.164 245.306 298.006 245.674 295.127L253.543 233.514C253.983 230.066 251.297 227.015 247.821 227.015Z" fill="#6876EB"/>
<path d="M201.334 270.21C205.402 266.35 205.883 260.253 202.408 256.591C198.934 252.929 192.82 253.09 188.752 256.949C184.685 260.809 184.204 266.906 187.678 270.568C191.153 274.229 197.267 274.069 201.334 270.21Z" fill="white"/>
<path d="M245.691 299.642H124.11" stroke="#1C145E" stroke-miterlimit="10"/>
<path d="M299.423 217.188L339.784 217.953L330.634 168.58L309.173 171.01C309.173 171.01 299.506 185.278 307.14 196.372C315.753 208.889 298.536 209.356 299.423 217.188Z" fill="#16005C"/>
<path d="M309.172 171.01C309.172 171.01 299.505 185.278 307.139 196.372C315.753 208.89 298.536 209.356 299.423 217.188" stroke="#7079F1" stroke-width="2" stroke-miterlimit="10"/>
<path d="M317.224 211.224C317.224 211.224 298.86 229.244 289.177 297.153H309.619L317.224 211.224Z" fill="#7079F1"/>
<path d="M365.758 206.204L357.766 297.153H298.394L305.785 262.417C305.785 262.417 283.181 250.624 317.224 211.224L325.685 206.872L362.445 204.096L365.758 206.204Z" fill="#C3C8FF"/>
<path d="M317.224 251.928C317.224 251.928 313.665 258.024 317.087 262.918L312.048 297.153" stroke="#7079F1" stroke-miterlimit="10"/>
<path d="M308.926 262.574L343.315 263.589" stroke="#7079F1" stroke-miterlimit="10"/>
<path d="M350.095 279.694L346.458 235.949" stroke="#7079F1" stroke-miterlimit="10"/>
<path d="M365.758 206.204C365.758 206.204 369.037 210.329 372.833 219.894C378.215 233.457 384.634 257.96 384.213 297.152H357.766L365.758 206.204Z" fill="#C3C8FF"/>
<path d="M384.213 300.153C384.213 300.153 370.999 269.933 337.762 278.581C301.471 288.024 287.995 286.259 287.995 286.259L285.244 300.153H384.213Z" fill="#E9A394"/>
<path d="M349.619 272.23L337.826 274.867L364.613 300.153H389.862C389.862 300.153 378.98 273.767 349.619 272.23Z" fill="#7079F1"/>
<path d="M350.348 280.073L355.965 278.357" stroke="#C3C8FF" stroke-miterlimit="10"/>
<path d="M287.995 286.259L270.751 282.694L258.39 300.153H285.244L287.995 286.259Z" fill="#E9A394"/>
<path d="M317.224 251.928L349.268 219.884L343.315 217.073L365.758 206.204L355.452 199.646H331.466L317.224 217.448L321.159 218.436L317.224 221.196V251.928Z" fill="#7079F1"/>
<path d="M339.627 210.539L350.095 203.305L338.795 178.038L321.28 189.039L326.214 209.998L317.224 251.928L339.627 210.539Z" fill="#E9A394"/>
<path d="M322.689 195.025L334.981 188.615L324.007 200.621L322.689 195.025Z" fill="#E37A82"/>
<path d="M300.234 158.445L294.867 188.191H302.918L311.958 200.621L334.981 188.615L318.879 152.738L300.234 158.445Z" fill="#E9A394"/>
<path d="M298.933 165.658L298.394 168.926L319.627 166.029L319.302 161.96L298.933 165.658Z" fill="#E37A82"/>
<path d="M358.921 156.185C353.606 141.777 347.107 136.222 347.107 136.222C334.082 123.279 311.817 137.641 311.817 137.641C283.285 130.735 294.867 166.158 294.867 166.158L318.103 163.308C321.352 182.8 332.971 172.93 332.971 172.93L338.39 182.704C338.39 182.704 332.923 187.536 338.623 195.82C343.316 202.641 332.078 204.965 334.982 212.226L379.895 202.917C379.895 173.365 368.527 182.225 358.921 156.185Z" fill="#16005C"/>
<path d="M293.046 166.387C293.046 166.387 288.937 146.162 296.485 139.581C300.421 136.149 312.816 137.641 312.816 137.641" stroke="#7079F1" stroke-width="2" stroke-miterlimit="10"/>
<path d="M382.835 202.065C382.835 202.065 386.422 188.615 366.879 173.364" stroke="#16005C" stroke-width="2" stroke-miterlimit="10"/>
<path d="M333.639 183.954C338.982 183.954 343.314 179.622 343.314 174.279C343.314 168.936 338.982 164.604 333.639 164.604C328.296 164.604 323.964 168.936 323.964 174.279C323.964 179.622 328.296 183.954 333.639 183.954Z" fill="#E9A394"/>
<path d="M308.926 187.097L314.924 185.624C314.924 185.624 317.029 202.731 308.926 187.097Z" fill="white"/>
<path d="M303.931 176.988C303.931 176.988 305.84 165.353 310.017 176.988" stroke="#1C145E" stroke-width="0.5" stroke-miterlimit="10"/>
<path d="M305.405 168.137C305.405 168.137 307.73 164.199 310.485 168.137H305.405Z" fill="#16005C"/>
<path d="M215.152 63.316C211.672 53.638 200.731 48.792 191.141 52.927C182.888 56.486 178.513 65.849 181.073 74.465C182.504 79.282 185.736 83.008 189.783 85.182C193.519 87.188 196.725 90.051 199.075 93.58L199.753 94.598L213.19 89.767L213.065 88.556C212.622 84.268 213.372 79.978 214.957 75.969C216.503 72.056 216.687 67.586 215.152 63.316Z" fill="#C3C8FF"/>
<path d="M215.152 63.316C211.672 53.638 200.731 48.792 191.141 52.927C182.888 56.486 178.513 65.849 181.073 74.465C182.504 79.282 185.736 83.008 189.783 85.182C193.519 87.188 196.725 90.051 199.075 93.58L199.753 94.598L213.19 89.767L213.065 88.556C212.622 84.268 213.372 79.978 214.957 75.969C216.503 72.056 216.687 67.586 215.152 63.316Z" fill="#C3C8FF"/>
<path d="M202.827 90.635L192.116 75.529C192.116 75.529 192.311 72.47 195.673 72.955C199.035 73.44 201.042 78.746 198.643 77.89C196.244 77.034 195.395 70.797 199.935 69.846C204.474 68.895 205.991 79.208 203.483 77.221C200.975 75.234 201.504 68.668 206.365 68.614L209.217 90.401" stroke="white" stroke-miterlimit="10"/>
<path d="M212.878 100.092L206.568 102.361C204.169 103.224 201.524 101.978 200.662 99.579L199.328 95.869C198.465 93.47 199.711 90.825 202.11 89.963L208.42 87.694C210.819 86.831 213.463 88.077 214.326 90.476L215.66 94.186C216.522 96.585 215.277 99.229 212.878 100.092Z" fill="#16005C"/>
<path d="M214.364 84.3349L195.361 91.1665L198.696 100.443L217.699 93.6113L214.364 84.3349Z" fill="#6876EB"/>
<path d="M197.818 46.869L195.922 36" stroke="#C3C8FF" stroke-miterlimit="10"/>
<path d="M184.124 53.343L175.046 44.476" stroke="#C3C8FF" stroke-miterlimit="10"/>
<path d="M174.663 69.451L164.305 70.192" stroke="#C3C8FF" stroke-miterlimit="10"/>
<path d="M212.748 52.825L217.41 44.18" stroke="#C3C8FF" stroke-miterlimit="10"/>
<path d="M358.589 132.673H422.817C425.05 132.673 427.189 130.863 427.594 128.629L434.231 92.012C434.636 89.779 433.153 87.968 430.92 87.968H366.692C364.459 87.968 362.32 89.778 361.915 92.012L355.278 128.629C354.874 130.862 356.356 132.673 358.589 132.673Z" fill="#1C145C"/>
<path d="M410.08 113.166C411.955 111.453 412.316 108.796 410.887 107.232C409.458 105.667 406.779 105.787 404.905 107.5C403.03 109.212 402.668 111.869 404.098 113.434C405.527 114.998 408.205 114.878 410.08 113.166Z" fill="white"/>
<path d="M397.322 113.165C399.197 111.453 399.559 108.796 398.129 107.231C396.7 105.667 394.022 105.787 392.147 107.5C390.272 109.212 389.911 111.869 391.34 113.433C392.769 114.998 395.448 114.878 397.322 113.165Z" fill="white"/>
<path d="M384.565 113.165C386.44 111.452 386.801 108.796 385.372 107.231C383.943 105.667 381.264 105.787 379.39 107.499C377.515 109.212 377.153 111.869 378.582 113.433C380.012 114.998 382.69 114.878 384.565 113.165Z" fill="white"/>
<path d="M393.156 130.265L370.839 143.528L374.839 129.219L393.156 130.265Z" fill="#1C145C"/>
<path d="M151.678 127.245H87.45C85.217 127.245 83.078 125.435 82.673 123.201L76.036 86.584C75.631 84.351 77.114 82.54 79.347 82.54H143.575C145.808 82.54 147.947 84.35 148.352 86.584L154.989 123.201C155.394 125.434 153.912 127.245 151.678 127.245Z" fill="#C3C8FF"/>
<path d="M106.139 107.989C107.568 106.424 107.206 103.767 105.332 102.055C103.457 100.342 100.778 100.222 99.3492 101.787C97.9201 103.351 98.2814 106.008 100.156 107.721C102.031 109.433 104.709 109.553 106.139 107.989Z" fill="white"/>
<path d="M118.896 107.989C120.325 106.424 119.964 103.767 118.089 102.055C116.214 100.342 113.536 100.222 112.106 101.787C110.677 103.351 111.039 106.008 112.914 107.721C114.788 109.433 117.467 109.553 118.896 107.989Z" fill="white"/>
<path d="M131.653 107.989C133.082 106.425 132.72 103.768 130.846 102.056C128.971 100.343 126.292 100.223 124.863 101.788C123.434 103.352 123.795 106.009 125.67 107.721C127.545 109.434 130.223 109.554 131.653 107.989Z" fill="white"/>
<path d="M128.766 124.837L132.289 137.64L146.537 123.941L128.766 124.837Z" fill="#C3C8FF"/>
</svg>
